HIERARCHY
ROOT Hips
{
    OFFSET   0.000000   0.000000   0.000000
    CHANNELS 6 Xposition Yposition Zposition Zrotation Xrotation Yrotation
    JOINT Chest
    {
        OFFSET   0.000000   8.007230   0.000000
        CHANNELS 3 Zrotation Xrotation Yrotation
        JOINT Chest2
        {
            OFFSET   0.000000  22.077100   0.000000
            CHANNELS 3 Zrotation Xrotation Yrotation
            JOINT Neck
            {
                OFFSET   0.000000  23.255100   0.000000
                CHANNELS 3 Zrotation Xrotation Yrotation
                JOINT Head
                {
                    OFFSET   0.000000  14.370100   1.956600
                    CHANNELS 3 Zrotation Xrotation Yrotation
                    End Site
                    {
                        OFFSET   0.000000  19.566000   0.000000
                    }
                }
            }
            JOINT LeftCollar
            {
                OFFSET   3.911900  19.017000  -0.467063
                CHANNELS 3 Zrotation Xrotation Yrotation
                JOINT LeftShoulder
                {
                    OFFSET  10.383700   0.000000   0.000000
                    CHANNELS 3 Zrotation Xrotation Yrotation
                    JOINT LeftElbow
                    {
                        OFFSET  26.662100   0.001193   0.000980
                        CHANNELS 3 Zrotation Xrotation Yrotation
                        JOINT LeftWrist
                        {
                            OFFSET  28.869000  -0.000059  -0.000082
                            CHANNELS 3 Zrotation Xrotation Yrotation
                            JOINT LeftFinger0
                            {
                                OFFSET   2.044650  -2.323450   3.252850
                                CHANNELS 3 Zrotation Xrotation Yrotation
                                JOINT LeftFinger01
                                {
                                    OFFSET   3.088130   0.000000   0.000000
                                    CHANNELS 3 Zrotation Xrotation Yrotation
                                    JOINT LeftFinger02
                                    {
                                        OFFSET   2.639460   0.000000   0.000000
                                        CHANNELS 3 Zrotation Xrotation Yrotation
                                        End Site
                                        {
                                            OFFSET   2.582190   0.000000   0.000000
                                        }
                                    }
                                }
                            }
                            JOINT LeftFinger1
                            {
                                OFFSET   8.364480   0.000000   3.252850
                                CHANNELS 3 Zrotation Xrotation Yrotation
                                JOINT LeftFinger11
                                {
                                    OFFSET   4.646930   0.000000   0.000000
                                    CHANNELS 3 Zrotation Xrotation Yrotation
                                    JOINT LeftFinger12
                                    {
                                        OFFSET   2.323470   0.000000   0.000000
                                        CHANNELS 3 Zrotation Xrotation Yrotation
                                        End Site
                                        {
                                            OFFSET   2.273050   0.000000   0.000000
                                        }
                                    }
                                }
                            }
                            JOINT LeftFinger2
                            {
                                OFFSET   8.364490   0.000016   1.078090
                                CHANNELS 3 Zrotation Xrotation Yrotation
                                JOINT LeftFinger21
                                {
                                    OFFSET   5.111610   0.000000   0.000000
                                    CHANNELS 3 Zrotation Xrotation Yrotation
                                    JOINT LeftFinger22
                                    {
                                        OFFSET   2.788150   0.000016   0.000000
                                        CHANNELS 3 Zrotation Xrotation Yrotation
                                        End Site
                                        {
                                            OFFSET   2.727660   0.000000   0.000000
                                        }
                                    }
                                }
                            }
                            JOINT LeftFinger3
                            {
                                OFFSET   7.899780   0.000015  -1.078090
                                CHANNELS 3 Zrotation Xrotation Yrotation
                                JOINT LeftFinger31
                                {
                                    OFFSET   4.646930   0.000000   0.000000
                                    CHANNELS 3 Zrotation Xrotation Yrotation
                                    JOINT LeftFinger32
                                    {
                                        OFFSET   2.323470   0.000000   0.000000
                                        CHANNELS 3 Zrotation Xrotation Yrotation
                                        End Site
                                        {
                                            OFFSET   2.273050   0.000000   0.000000
                                        }
                                    }
                                }
                            }
                            JOINT LeftFinger4
                            {
                                OFFSET   7.435090   0.000000  -3.252850
                                CHANNELS 3 Zrotation Xrotation Yrotation
                                JOINT LeftFinger41
                                {
                                    OFFSET   3.717550   0.000000   0.000000
                                    CHANNELS 3 Zrotation Xrotation Yrotation
                                    JOINT LeftFinger42
                                    {
                                        OFFSET   1.858770   0.000000   0.000000
                                        CHANNELS 3 Zrotation Xrotation Yrotation
                                        End Site
                                        {
                                            OFFSET   1.818440   0.000000   0.000000
                                        }
                                    }
                                }
                            }
                        }
                    }
                }
            }
            JOINT RightCollar
            {
                OFFSET  -3.911910  19.017000  -0.467062
                CHANNELS 3 Zrotation Xrotation Yrotation
                JOINT RightShoulder
                {
                    OFFSET -10.383700   0.000014   0.000000
                    CHANNELS 3 Zrotation Xrotation Yrotation
                    JOINT RightElbow
                    {
                        OFFSET -26.662100   0.001225   0.001091
                        CHANNELS 3 Zrotation Xrotation Yrotation
                        JOINT RightWrist
                        {
                            OFFSET -28.869000  -0.000020  -0.000085
                            CHANNELS 3 Zrotation Xrotation Yrotation
                            JOINT RightFinger0
                            {
                                OFFSET  -2.044650  -2.323490   3.252850
                                CHANNELS 3 Zrotation Xrotation Yrotation
                                JOINT RightFinger01
                                {
                                    OFFSET  -3.088130   0.000000   0.000000
                                    CHANNELS 3 Zrotation Xrotation Yrotation
                                    JOINT RightFinger02
                                    {
                                        OFFSET  -2.639460   0.000000   0.000000
                                        CHANNELS 3 Zrotation Xrotation Yrotation
                                        End Site
                                        {
                                            OFFSET  -2.582190   0.000000   0.000000
                                        }
                                    }
                                }
                            }
                            JOINT RightFinger1
                            {
                                OFFSET  -8.364480   0.000000   3.252850
                                CHANNELS 3 Zrotation Xrotation Yrotation
                                JOINT RightFinger11
                                {
                                    OFFSET  -4.646930   0.000000   0.000000
                                    CHANNELS 3 Zrotation Xrotation Yrotation
                                    JOINT RightFinger12
                                    {
                                        OFFSET  -2.323470   0.000000   0.000000
                                        CHANNELS 3 Zrotation Xrotation Yrotation
                                        End Site
                                        {
                                            OFFSET  -2.273050   0.000000   0.000000
                                        }
                                    }
                                }
                            }
                            JOINT RightFinger2
                            {
                                OFFSET  -8.364480   0.000000   1.078090
                                CHANNELS 3 Zrotation Xrotation Yrotation
                                JOINT RightFinger21
                                {
                                    OFFSET  -5.111620   0.000000   0.000000
                                    CHANNELS 3 Zrotation Xrotation Yrotation
                                    JOINT RightFinger22
                                    {
                                        OFFSET  -2.788160   0.000000   0.000000
                                        CHANNELS 3 Zrotation Xrotation Yrotation
                                        End Site
                                        {
                                            OFFSET  -2.727660   0.000000   0.000000
                                        }
                                    }
                                }
                            }
                            JOINT RightFinger3
                            {
                                OFFSET  -7.899780   0.000000  -1.078090
                                CHANNELS 3 Zrotation Xrotation Yrotation
                                JOINT RightFinger31
                                {
                                    OFFSET  -4.646930   0.000000   0.000000
                                    CHANNELS 3 Zrotation Xrotation Yrotation
                                    JOINT RightFinger32
                                    {
                                        OFFSET  -2.323470   0.000000   0.000000
                                        CHANNELS 3 Zrotation Xrotation Yrotation
                                        End Site
                                        {
                                            OFFSET  -2.273050   0.000000   0.000000
                                        }
                                    }
                                }
                            }
                            JOINT RightFinger4
                            {
                                OFFSET  -7.435090   0.000000  -3.252850
                                CHANNELS 3 Zrotation Xrotation Yrotation
                                JOINT RightFinger41
                                {
                                    OFFSET  -3.717550   0.000000   0.000000
                                    CHANNELS 3 Zrotation Xrotation Yrotation
                                    JOINT RightFinger42
                                    {
                                        OFFSET  -1.858760   0.000000   0.000000
                                        CHANNELS 3 Zrotation Xrotation Yrotation
                                        End Site
                                        {
                                            OFFSET  -1.818440   0.000000   0.000000
                                        }
                                    }
                                }
                            }
                        }
                    }
                }
            }
        }
    }
    JOINT LeftHip
    {
        OFFSET   9.783030   0.000000   0.000000
        CHANNELS 3 Zrotation Xrotation Yrotation
        JOINT LeftKnee
        {
            OFFSET   0.000063 -41.789100   0.000608
            CHANNELS 3 Zrotation Xrotation Yrotation
            JOINT LeftAnkle
            {
                OFFSET   0.000048 -41.133200  -0.000184
                CHANNELS 3 Zrotation Xrotation Yrotation
                JOINT LeftToe
                {
                    OFFSET   0.000000  -6.358960  14.674500
                    CHANNELS 3 Zrotation Xrotation Yrotation
                    End Site
                    {
                        OFFSET   0.000000   0.000000   3.913200
                    }
                }
            }
        }
    }
    JOINT RightHip
    {
        OFFSET  -9.783030   0.000000   0.000000
        CHANNELS 3 Zrotation Xrotation Yrotation
        JOINT RightKnee
        {
            OFFSET   0.000071 -41.789100   0.001239
            CHANNELS 3 Zrotation Xrotation Yrotation
            JOINT RightAnkle
            {
                OFFSET   0.000037 -41.133200  -0.000166
                CHANNELS 3 Zrotation Xrotation Yrotation
                JOINT RightToe
                {
                    OFFSET   0.000000  -6.358960  14.674500
                    CHANNELS 3 Zrotation Xrotation Yrotation
                    End Site
                    {
                        OFFSET   0.000000   0.000000   3.913200
                    }
                }
            }
        }
    }
}
MOTION
Frames: 4
Frame Time:   0.016667
  0.297448  90.038400  -0.431867  -2.549540 -10.861500  -6.514670   0.185342   6.547940  -0.847832   0.473624  13.092300  -1.734330   2.583860   2.849190  -0.124598   4.274300   5.742510   3.824100  -5.308490  -1.453300   3.766790 -69.713600   3.433900 -34.920000  23.875800 -20.931400 -76.034600 -21.194800  43.358900  50.491300  53.730000  49.744200 -98.507100  18.186900  -0.007406   0.005880  14.093400  -0.003738   0.002944  -0.894685   0.107862  -6.795730  -0.737661   0.001282  -0.010834  -0.516344   0.000891  -0.000753  -3.122880  -0.468344   8.524310  -3.158170   0.001192  -0.001096  -2.103340   0.000795  -0.003936  -2.772660  -0.722268  14.600400  -2.865120  -0.001125  -0.000385  -1.908180  -0.000572  -0.002789 -19.635200 -10.520200  27.088800 -33.263000  -0.000699  -0.001464 -22.153100   0.007198  -0.001088   8.120280   2.262320   9.301960  67.063300   1.859440  36.605400 -25.651500 -28.157900  67.970100  -0.701706  45.815800 -30.943700 -40.175300  34.442700  76.598100 -18.454800   0.003939   0.001377 -14.227400   0.000697   0.000241  -3.695350  -0.022636   0.296844   0.011073   0.000119   0.012886   0.007755  -0.009607   0.004457  -4.557180   0.658575  -8.241880   0.052192   0.000000   0.012390   0.034758   0.000125   0.004101   7.179440  -1.783950 -13.900700   7.396580  -0.004422   0.004023   4.926120  -0.002084   0.002660  42.168300 -12.437100 -13.374300  65.447400  -0.001273   0.000445  43.588000   0.006835   0.000748   1.511330  12.098400   5.045060  -0.605819   1.804700  18.239700  -4.378050  -4.864410   7.920910  -0.000000   0.000000  -0.000000   2.555970  10.323200  -7.459730  -2.172250   4.757970  -7.110550  -8.404450  -0.696493   4.839720   0.000000   0.000000   0.000000
  0.310850  90.037200  -0.429478  -2.535690 -10.833500  -6.464760   0.178741   6.542030  -0.840456   0.459329  13.080700  -1.718600   2.568390   2.821640  -0.123461   4.248390   5.687260   3.837160  -5.295300  -1.487860   3.745140 -69.530800   3.651090 -34.954400  24.036400 -20.922900 -76.022800 -21.126200  43.522600  50.417100  53.550900  49.552100 -98.136500  18.204600  -0.007457   0.005878  14.102300  -0.003624   0.003076  -0.907844   0.099079  -6.852900  -0.747581  -0.004098  -0.011005  -0.523287  -0.002861  -0.000794  -3.166270  -0.478321   8.346510  -3.201830  -0.005840  -0.001104  -2.132420  -0.003789  -0.003966  -2.649870  -0.689418  14.575100  -2.738740  -0.001320  -0.000420  -1.824000  -0.000750  -0.002890 -18.866200 -10.248100  27.485600 -32.073800   0.001674  -0.000221 -21.361100   0.008565   0.000197   8.128710   2.217660   9.302390  66.962100   1.850760  36.622900 -25.714100 -28.190800  68.025100  -0.450817  46.175900 -31.141100 -40.184800  34.320200  76.420200 -18.477600   0.003865   0.001366 -14.238800   0.000829   0.000123  -2.817680  -0.038536   0.725464   0.005537  -0.002356   0.013099  -0.074578  -0.009705   0.004578  -3.580580   0.506906  -8.114960   0.026097  -0.001906   0.012480  -0.168840  -0.001219   0.004119   7.180220  -1.785430 -13.900800   7.397730  -0.004677   0.004331   4.926890  -0.002340   0.002924  41.612900 -12.511200 -13.676600  64.675500  -0.006851   0.012999  43.073900   0.007104   0.009615   1.502220  12.082400   5.042060  -0.600616   1.768100  18.209800  -4.375610  -4.842430   7.910850  -0.000000   0.000000   0.000000   2.537600  10.328600  -7.455370  -2.154360   4.701320  -7.138570  -8.405750  -0.666452   4.825150   0.000000   0.000000   0.000000
  0.325742  90.037100  -0.427772  -2.520180 -10.809000  -6.406420   0.170687   6.540260  -0.832011   0.442053  13.077300  -1.700580   2.548950   2.781830  -0.121926   4.215360   5.607340   3.865700  -5.280510  -1.527930   3.723230 -69.389700   3.780450 -34.973500  24.173200 -20.907600 -76.008000 -20.944000  43.720000  50.170000  53.406600  49.390300 -97.831600  18.226000  -0.007502   0.005875  14.113000  -0.003506   0.003205  -0.943508   0.090260  -7.103150  -0.775882  -0.015374  -0.011175  -0.543103  -0.010747  -0.000839  -3.388850  -0.504119   7.997440  -3.424760  -0.019019  -0.001117  -2.280890  -0.012580  -0.003997  -2.530950  -0.657915  14.549900  -2.616460  -0.001964  -0.000455  -1.742560  -0.001306  -0.002995 -17.840500  -9.911830  28.176600 -30.505500   0.006677   0.002826 -20.316700   0.009955   0.003176   8.139260   2.170370   9.302810  66.852000   1.842320  36.630400 -25.785400 -28.215900  68.076300  -0.122487  46.628400 -31.378800 -40.192200  34.181300  76.234800 -18.500800   0.003775   0.001354 -14.250400   0.000957   0.000000  -1.682500  -0.046460   1.155020   0.000002  -0.006851   0.013229  -0.156910  -0.009803   0.004780  -2.377050   0.325860  -7.976970   0.000001  -0.005868   0.012539  -0.372438  -0.003997   0.004183   7.181000  -1.786910 -13.901100   7.398890  -0.004950   0.004655   4.927660  -0.002609   0.003203  40.596400 -12.602400 -14.247200  63.258800  -0.016145   0.031293  42.130400   0.007251   0.023089   1.491210  12.065100   5.036750  -0.593932   1.732250  18.175200  -4.373430  -4.816340   7.901750   0.000000   0.000000   0.000000   2.517690  10.340800  -7.453410  -2.135350   4.640920  -7.165010  -8.407380  -0.634695   4.797740  -0.000000   0.000000   0.000000
  0.341427  90.038500  -0.426772  -2.503490 -10.788300  -6.340780   0.162650   6.540730  -0.820786   0.424520  13.078400  -1.676960   2.525980   2.730320  -0.119626   4.176390   5.504050   3.907790  -5.263530  -1.566680   3.697470 -69.150300   3.780730 -34.959400  24.068400 -20.855000 -75.996500 -20.700400  43.931600  49.607600  53.548000  49.475000 -97.988800  18.236300  -0.007552   0.005877  14.118200  -0.003392   0.003323  -1.285290   0.117211  -7.604260  -1.055620  -0.033705  -0.011343  -0.738930  -0.023571  -0.000869  -3.887540  -0.551632   7.366620  -3.922990  -0.038061  -0.001121  -2.612720  -0.025232  -0.004012  -2.528870  -0.693122  15.075800  -2.626370  -0.012109  -0.000480  -1.749160  -0.008139  -0.003108 -16.522700  -9.647370  29.725100 -28.653100   0.016951   0.008798 -19.083000   0.011733   0.008955   8.149100   2.123870   9.298270  66.739500   1.843450  36.604600 -25.888100 -28.227400  68.102000   0.189058  47.254100 -31.520200 -40.222400  34.081700  76.090100 -18.524000   0.003669   0.001350 -14.262000   0.001079  -0.000129  -0.343476  -0.033484   1.449210   0.174691  -0.013177   0.013138   0.034018  -0.009901   0.005188  -1.071840   0.130502  -7.822300   0.006706  -0.012742   0.012444  -0.312565  -0.008479   0.004640   7.141400  -1.779710 -13.906600   7.358840  -0.005252   0.005002   4.900990  -0.002900   0.003498  38.894000 -12.734500 -15.221200  60.890500  -0.026095   0.044216  40.553100   0.005607   0.033904   1.482450  12.044000   5.030130  -0.588920   1.701510  18.124600  -4.372550  -4.788280   7.901970  -0.000000   0.000000   0.000000   2.499140  10.362400  -7.452850  -2.116000   4.574490  -7.194400  -8.408990  -0.603523   4.769590  -0.000000   0.000000  -0.000000
